M48
;GenerationSoftware,Autodesk,EAGLE,8.6.0*%
;CreationDate,2018-04-02T23:35:31Z*%
FMAT,2
ICI,OFF
METRIC,TZ,000.0000
T23C0.3000
T22C0.3500
T21C0.4000
T20C0.5000
T19C0.6000
T18C0.6096
T17C0.8000
T16C0.8128
T15C0.9144
T14C0.9906
T13C1.0000
T12C1.0160
T11C1.1000
T10C1.2000
T9C1.3716
T8C1.4000
T7C1.5000
T6C1.7000
T5C1.8000
T4C2.0000
T3C3.0000
T2C3.1750
T1C3.5000
%
G90
M71
T1
X800000Y1650000
X220000Y2410000
X800000Y50000
X50000Y400000
X50000Y1010000
X50000Y1650000
X50000Y50000
X780000Y830000
X220000Y2160000
X800000Y400000
X600000Y2160000
X600000Y2410000
T2
X427950Y2052900
X35400Y1765400
X815500Y2047900
X425450Y1755400
X37900Y2035400
X808000Y1755400
T3
X248700Y429300
T4
X789000Y1470000
X789000Y970000
X789000Y1300000
T5
X679150Y1675500
X602950Y1592900
X679150Y1542100
X356300Y1593900
X432500Y1543100
X602950Y1675500
T6
X308540Y591560
X257740Y591560
X257740Y540760
X308540Y540760
T7
X571250Y1637400
X283140Y566160
X641050Y1675500
X641050Y1637400
T8
X723550Y1573800
X356300Y1638350
X432500Y1632000
X394400Y1676500
T9
X546100Y1933360
X520700Y1933360
X571500Y1933360
T10
X795300Y1132900
X796000Y1379400
X276000Y1379400
X275500Y890900
X795500Y890900
X275300Y1132900
T11
X297000Y781600
X297000Y832400
X248600Y1663200
X197800Y1663200
X223200Y1663200
X297000Y807000
T12
X127000Y1745400
X821500Y1948600
X152400Y1745400
X177800Y1745400
X203200Y1745400
X228600Y1745400
X254000Y1745400
X552400Y398300
X821500Y1923200
X821500Y1897800
X279400Y1745400
X304800Y1745400
X304800Y2050200
X279400Y2050200
X254000Y2050200
X228600Y2050200
X203200Y2050200
X177800Y2050200
X152400Y2050200
X127000Y2050200
X101600Y2050200
X76200Y2050200
X192700Y281000
X101600Y1745400
X577800Y372900
X577800Y398300
X603200Y372900
X603200Y398300
X552400Y372900
X192700Y255600
X192700Y306400
X821500Y1872400
X76200Y1745400
T13
X273122Y1168826
X520000Y1110000
X740000Y1080000
X450000Y1110000
X239000Y815000
X299000Y953500
X273122Y1294826
X145694Y1274934
X145694Y1148934
X239000Y769000
X239000Y792000
X253000Y953500
X276000Y953500
X254000Y1074700
X300000Y1074700
X277000Y1074700
X255000Y1015100
X301000Y1015100
X278000Y1015100
X189230Y1553508
X189230Y1427508
T14
X452500Y300100
X630300Y147700
X604900Y147700
X579500Y147700
X554100Y147700
X528700Y147700
X503300Y147700
X477900Y147700
X452500Y147700
X427100Y147700
X401700Y147700
X376300Y147700
X350900Y147700
X325500Y147700
X300100Y147700
X274700Y147700
X706500Y147700
X249300Y147700
X249300Y300100
X274700Y300100
X350900Y300100
X376300Y300100
X401700Y300100
X300100Y300100
X731900Y300100
X427100Y300100
X731900Y147700
X325500Y300100
X681100Y147700
X694200Y86200
X706500Y300100
X681100Y300100
X655700Y300100
X630300Y300100
X604900Y300100
X579500Y300100
X706900Y111600
X655700Y147700
X719600Y86200
X554100Y300100
X528700Y300100
X503300Y300100
X477900Y300100
X666100Y86200
X653400Y111600
X640700Y86200
T15
X364800Y107500
X390200Y107500
T16
X461900Y502500
X461900Y527900
X461900Y553300
X462500Y581050
X437100Y581050
X649700Y373200
X649700Y424000
X130860Y275120
X130860Y249720
X79600Y289200
X105000Y289200
X79600Y317020
X105000Y317020
X79330Y344840
X104730Y344840
X39600Y204300
X90400Y204300
X165240Y76700
X165240Y51300
X136190Y89240
X136190Y63840
X94580Y66110
X94580Y86430
X93950Y170960
X93950Y150640
X135750Y150100
X135750Y175500
X160850Y215980
X186250Y215980
X160080Y375290
X160080Y349890
X772100Y721400
X746700Y721400
X772100Y750500
X746700Y750500
X351400Y553880
X351400Y503080
X711550Y441980
X660750Y441980
X136300Y1658300
X123600Y1628300
X110900Y1658300
X316000Y1285300
X316000Y1310700
X665400Y62900
X690800Y62900
X607600Y123300
X607600Y72500
X579500Y71500
X579500Y122300
X552100Y71500
X526700Y71500
X731580Y344710
X731580Y370110
X731520Y400580
X680720Y400580
X384900Y691100
X384900Y665700
X384900Y640300
X384900Y614900
X461100Y614900
X461100Y640300
X461100Y665700
X461100Y691100
X460700Y723000
X435300Y723000
X348000Y678400
X348000Y627600
X34600Y1570000
X85400Y1570000
X85400Y1540000
X34600Y1540000
X34600Y1600000
X85400Y1600000
X85400Y460000
X34600Y460000
X85400Y550000
X34600Y550000
X85400Y580000
X34600Y580000
X85400Y820000
X34600Y820000
X85400Y790000
X34600Y790000
X85400Y760000
X34600Y760000
X85400Y730000
X34600Y730000
X85400Y700000
X34600Y700000
X85400Y670000
X34600Y670000
X85400Y640000
X34600Y640000
X85400Y610000
X34600Y610000
X85400Y520000
X34600Y520000
X85400Y490000
X34600Y490000
X200000Y895400
X200000Y844600
X780000Y205400
X750000Y115400
X750000Y64600
X200000Y815400
X200000Y764600
X234000Y849600
X234000Y900400
X164600Y950000
X215400Y950000
X164600Y920000
X215400Y920000
X164600Y1010000
X215400Y1010000
X164600Y1040000
X215400Y1040000
X215400Y980000
X164600Y980000
X34600Y1390000
X85400Y1390000
X34600Y1330000
X85400Y1330000
X34600Y1300000
X85400Y1300000
X85400Y1270000
X34600Y1270000
X34600Y1450000
X85400Y1450000
X85400Y1510000
X34600Y1510000
X34600Y1480000
X85400Y1480000
X316000Y1208400
X316000Y1157600
X316000Y1234300
X316000Y1259700
X235400Y1240000
X184600Y1240000
X250400Y670000
X199600Y670000
X790000Y1092700
X790000Y1067300
X790000Y1192700
X790000Y1167300
X199600Y640000
X250400Y640000
X279600Y640000
X330400Y640000
X764600Y1040000
X815400Y1040000
X815400Y1220000
X764600Y1220000
X780000Y154600
X406400Y1935900
X406400Y1910500
X673100Y1935900
X673100Y1885100
X477900Y118800
X503300Y118800
X510500Y352100
X510500Y326700
X528700Y120300
X528700Y94900
X411700Y382500
X411700Y407900
X462500Y382500
X462500Y407900
X427100Y84360
X477900Y84360
X273100Y111800
X273100Y61000
X302200Y111800
X302200Y61000
X385700Y553300
X385700Y527900
X385700Y502500
X385700Y477100
X461900Y477100
T17
X672200Y693000
X692200Y693000
X288891Y1461693
X234909Y1463107
X592200Y473000
X592200Y693000
X612200Y693000
X632200Y693000
X75100Y2007800
X672200Y473000
X772200Y473000
X237000Y1170000
X183000Y1170000
X652200Y473000
X75100Y1787800
X95100Y1787800
X652200Y693000
X135100Y1787800
X155100Y1787800
X175100Y1787800
X195100Y1787800
X215100Y1787800
X235100Y1787800
X255100Y1787800
X255100Y2007800
X235100Y2007800
X215100Y2007800
X195100Y2007800
X175100Y2007800
X155100Y2007800
X135100Y2007800
X115100Y2007800
X95100Y2007800
X115100Y1787800
X712200Y693000
X732200Y693000
X752200Y693000
X772200Y693000
X752200Y473000
X732200Y473000
X712200Y473000
X692200Y473000
X632200Y473000
X612200Y473000
T18
X411700Y341700
X462500Y341700
T19
X223012Y1588298
X248012Y1587798
X34508Y1361728
X59508Y1361728
X108806Y1362430
X122500Y1127000
X97500Y1127000
X142500Y1527000
X117500Y1527000
X141050Y1476450
X116050Y1476450
X144042Y1583470
X83806Y1362430
X165130Y1091460
X322500Y1408000
X297500Y1408000
X140130Y1091960
X116026Y1437946
X141026Y1437946
X169042Y1582970
T20
X190000Y870000
T21
X120000Y1170000
X90000Y1180000
X90000Y1200000
X120000Y1200000
X120000Y1220000
X100000Y1220000
X120000Y1240000
X100000Y1240000
X120000Y1260000
X100000Y1260000
X100000Y1280000
X120000Y1280000
X95000Y1145000
X110000Y1135000
X110000Y1100000
X120000Y1090000
X30000Y120000
X40000Y100000
X90000Y120000
X105000Y45000
X410000Y1210000
X410000Y1230000
X410000Y1250000
X410000Y1270000
X410000Y1290000
X410000Y1310000
X410000Y1410000
X410000Y1390000
X410000Y1370000
X410000Y1350000
X410000Y1330000
X370000Y1200000
X370000Y1220000
X370000Y1240000
X370000Y1260000
X370000Y1280000
X370000Y1300000
X370000Y1400000
X370000Y1380000
X370000Y1360000
X370000Y1340000
X370000Y1320000
X580000Y1130000
X620000Y1130000
X650000Y1130000
X680000Y1130000
X640000Y1090000
X580000Y1090000
X550000Y1090000
X590000Y1180000
X610000Y1180000
X630000Y1180000
X650000Y1190000
X670000Y1210000
X690000Y1230000
X500000Y760000
X400000Y1650000
X410000Y1640000
X440000Y1610000
X450000Y1600000
X460000Y1590000
X470000Y1580000
X420000Y1580000
X440000Y1570000
X410000Y1590000
X400000Y1600000
X390000Y1610000
X380000Y1620000
X610000Y1090000
X610000Y1060000
X590000Y1040000
X570000Y1020000
X550000Y1000000
X530000Y980000
X570000Y950000
X590000Y970000
X610000Y980000
X640000Y980000
X670000Y980000
X690000Y980000
X690000Y1060000
X670000Y1040000
X650000Y1030000
X630000Y1020000
X370000Y970000
X400000Y950000
X380000Y930000
X360000Y910000
X340000Y890000
X320000Y870000
X350000Y950000
X330000Y930000
X310000Y910000
X130000Y720000
X600000Y1000000
X460000Y830000
X445000Y795000
X428000Y770412
X390000Y750000
X340000Y720000
X250000Y220000
X140000Y320000
X440000Y370000
X570000Y35000
X540000Y35000
X510000Y35000
X490000Y45000
X510000Y75000
X500000Y85000
X590000Y95000
X605000Y95000
X600000Y35000
X635000Y35000
X670000Y35000
X695000Y35000
X710000Y45000
X725000Y60000
X745000Y90000
X730000Y110000
X685000Y115000
X675000Y105000
X500000Y100000
X480000Y60000
X750000Y1170000
X710000Y1130000
X420000Y830000
X410000Y790000
X70000Y220000
X611500Y447500
X380000Y1650000
X634000Y447100
X628500Y403700
X628700Y389200
X110000Y120000
X220500Y163500
X130000Y120000
X150000Y120000
X170000Y120000
X190000Y120000
X230000Y150000
X54300Y317700
X54600Y283600
X54600Y300200
X54300Y265800
X54300Y249500
X54000Y228500
X61300Y187000
X70300Y172700
X120800Y192900
X132200Y205400
X130000Y310000
X150000Y310000
X160000Y280000
X220000Y300000
X230000Y280000
X260000Y280000
X290000Y280000
X330000Y280000
X270000Y210000
X290000Y210000
X300000Y180000
X320000Y180000
X360000Y220000
X430000Y250000
X420000Y230000
X420000Y190000
X390000Y190000
X700000Y370000
X700000Y350000
X700000Y330000
X460000Y230000
X470000Y250000
X460000Y190000
X460000Y210000
X790000Y360000
X810000Y340000
X760000Y320000
X760000Y300000
X425000Y510000
X425000Y490000
X425000Y470000
X425000Y450000
X390000Y450000
X390000Y430000
X390000Y410000
X390000Y390000
X440000Y390000
X490000Y400000
X490000Y380000
X530000Y410000
X530000Y395000
X490000Y360000
X490000Y340000
X220000Y470000
X250000Y470000
X290000Y470000
X320000Y470000
X320000Y390000
X290000Y390000
X260000Y390000
X220000Y530000
X200000Y530000
X220000Y560000
X200000Y560000
X220000Y590000
X310000Y630000
X115000Y570000
X115000Y540000
X115000Y515000
X115000Y490000
X115000Y460000
X115000Y440000
X105000Y410000
X90000Y390000
X130000Y620000
X130000Y640000
X130000Y670000
X130000Y690000
X490000Y450000
X510000Y460000
X530000Y460000
X550000Y460000
X687500Y447500
X695000Y492500
X670000Y492500
X640000Y492500
X610000Y492500
X582500Y492500
X547500Y492500
X532500Y492500
X517500Y492500
X530000Y520000
X550000Y520000
X580000Y520000
X610000Y520000
X640000Y520000
X670000Y520000
X690000Y520000
X720000Y510000
X390000Y80000
X370000Y80000
X350000Y80000
X330000Y80000
X430000Y50000
X390000Y40000
X370000Y40000
X350000Y40000
X330000Y40000
X300000Y40000
X270000Y40000
X240000Y40000
X210000Y30000
X430000Y690000
X410000Y680000
X425000Y640000
X425000Y610000
X530000Y670000
X560000Y670000
X590000Y670000
X620000Y670000
X650000Y670000
X710000Y670000
X670000Y630000
X650000Y630000
X590000Y630000
X530000Y630000
X620000Y630000
X560000Y630000
X790000Y670000
X830000Y670000
X830000Y630000
X790000Y630000
X790000Y590000
X830000Y590000
X830000Y550000
X790000Y550000
X830000Y510000
X790000Y510000
X820000Y460000
X260000Y720000
X260000Y700000
X280000Y760000
X310000Y760000
X370000Y760000
X400000Y760000
X400000Y720000
X390000Y795000
X360000Y795000
X335000Y795000
X290000Y860000
X320000Y850000
X350000Y850000
X380000Y850000
X410000Y850000
X430000Y795000
X430000Y760000
X470000Y760000
X460000Y795000
X500000Y850000
X495000Y795000
X500000Y720000
X530000Y720000
X530000Y760000
X530000Y795000
X530000Y850000
X550000Y850000
X575000Y795000
X560000Y760000
X560000Y720000
X610000Y850000
X630000Y850000
X610000Y795000
X685000Y800000
X650000Y860000
X670000Y870000
X710000Y820000
X730000Y840000
X750000Y860000
X770000Y875000
X590000Y870000
X530000Y870000
X560000Y900000
X530000Y930000
X500000Y900000
X480000Y920000
X500000Y960000
X470000Y990000
X460000Y940000
X430000Y970000
X450000Y1020000
X410000Y990000
X380000Y1010000
X340000Y1020000
X460000Y1060000
X490000Y1080000
X505000Y1090000
X530000Y1125000
X550000Y1140000
X560000Y1180000
X560000Y1200000
X560000Y1220000
X560000Y1240000
X560000Y1260000
X560000Y1300000
X560000Y1280000
X360000Y1150000
X380000Y1170000
X400000Y1190000
X430000Y1200000
X450000Y1200000
X470000Y1200000
X470000Y1220000
X470000Y1240000
X470000Y1260000
X470000Y1280000
X470000Y1300000
X470000Y1320000
X560000Y1320000
X560000Y1340000
X820000Y1570000
X560000Y1360000
X560000Y1380000
X560000Y1400000
X560000Y1420000
X560000Y1440000
X560000Y1460000
X560000Y1480000
X470000Y1480000
X470000Y1460000
X470000Y1440000
X470000Y1420000
X470000Y1400000
X470000Y1380000
X470000Y1360000
X470000Y1340000
X340000Y1480000
X360000Y1480000
X390000Y1480000
X410000Y1480000
X430000Y1480000
X450000Y1480000
X580000Y1480000
X600000Y1480000
X720000Y720000
X720000Y760000
X680000Y760000
X680000Y720000
X640000Y720000
X600000Y720000
X600000Y760000
X640000Y760000
X620000Y1480000
X640000Y1480000
X660000Y1480000
X680000Y1480000
X700000Y1480000
X720000Y1480000
X710000Y1660000
X700000Y1520000
X640000Y1520000
X620000Y1520000
X600000Y1520000
X580000Y1520000
X560000Y1520000
X560000Y1540000
X560000Y1560000
X560000Y1580000
X560000Y1600000
X560000Y1620000
X670000Y1620000
X690000Y1620000
X710000Y1620000
X730000Y1660000
X750000Y1650000
X770000Y1620000
X800000Y1600000
X790000Y1540000
X770000Y1560000
X750000Y1580000
X730000Y1600000
X730000Y1530000
X760000Y1530000
X530000Y1640000
X540000Y1650000
X550000Y1660000
X510000Y1680000
X490000Y1680000
X490000Y1660000
X490000Y1640000
X490000Y1620000
X490000Y1600000
X490000Y1580000
X490000Y1560000
X470000Y1530000
X450000Y1520000
X410000Y1520000
X390000Y1520000
X370000Y1520000
X350000Y1520000
X330000Y1520000
X300000Y1530000
X290000Y1540000
X280000Y1550000
X270000Y1560000
X160000Y1670000
X175000Y1670000
X175000Y1645000
X160000Y1645000
X225000Y1635000
X225000Y1615000
X270000Y1640000
X270000Y1620000
X270000Y1600000
X270000Y1580000
X225000Y1570000
X250000Y240000
X290000Y240000
X420000Y210000
X210000Y1415000
X230000Y1415000
X250000Y1415000
X270000Y1415000
X310000Y1380000
X300000Y1375000
X100000Y1030000
X100000Y1010000
X130000Y1010000
X130000Y990000
X100000Y990000
X100000Y960000
X130000Y970000
X100000Y930000
X130000Y820000
X130000Y790000
T22
X160000Y2190000
X160000Y2250000
X208000Y1325000
X216000Y1338000
X224000Y1325000
X224000Y1352000
X209000Y1352000
X220000Y130000
X158000Y1369000
X110000Y1300000
X130000Y870000
X180000Y450000
X160000Y2310000
X160000Y2340000
X160000Y2370000
X160000Y2220000
X230000Y1290000
X220000Y1390000
X140000Y1400000
X200000Y1380000
X160000Y1380000
X120000Y1400000
X290000Y1320000
X161000Y414000
X220000Y180000
X260000Y120000
X170000Y430000
X370000Y270000
X60000Y1410000
X150000Y737000
T23
X279700Y1353200
X70000Y1140000
X200000Y1110000
X370000Y1130000
X370000Y1030000
X110000Y1150000
X170500Y1342900
X300000Y1350000
X70000Y1160000
X150400Y1346500
M30