G04 EAGLE Gerber X2 export*
G75*
%MOMM*%
%FSLAX34Y34*%
%LPD*%
%AMOC8*
5,1,8,0,0,1.08239X$1,22.5*%
G01*
%ADD10R,0.300000X1.800000*%
%ADD11R,0.300000X4.500000*%
%ADD12R,0.300000X4.200000*%
%ADD13R,0.300000X3.900000*%
%ADD14R,0.300000X21.000000*%
%ADD15R,0.300000X22.800000*%
%ADD16R,0.300000X22.200000*%
%ADD17R,0.300000X21.300000*%
%ADD18R,0.300000X23.700000*%
%ADD19R,0.300000X5.400000*%
%ADD20R,0.300000X21.600000*%
%ADD21R,0.300000X24.000000*%
%ADD22R,0.300000X21.900000*%
%ADD23R,0.300000X6.000000*%
%ADD24R,0.300000X6.300000*%
%ADD25R,0.300000X6.900000*%
%ADD26R,0.300000X7.200000*%
%ADD27R,0.300000X24.300000*%
%ADD28R,0.300000X7.800000*%
%ADD29R,0.300000X8.100000*%
%ADD30R,0.300000X8.700000*%
%ADD31R,0.300000X9.000000*%
%ADD32R,0.300000X9.300000*%
%ADD33R,0.300000X9.600000*%
%ADD34R,0.300000X9.900000*%
%ADD35R,0.300000X4.800000*%
%ADD36R,0.300000X5.700000*%
%ADD37R,0.300000X17.100000*%
%ADD38R,0.300000X17.400000*%
%ADD39R,0.300000X16.800000*%
%ADD40R,0.300000X5.100000*%
%ADD41R,0.300000X8.400000*%
%ADD42R,0.300000X0.300000*%
%ADD43R,0.300000X48.900000*%
%ADD44R,0.300000X19.200000*%
%ADD45R,0.300000X47.100000*%
%ADD46R,0.300000X7.500000*%
%ADD47R,0.300000X46.800000*%
%ADD48R,0.300000X6.600000*%
%ADD49R,0.300000X48.600000*%
%ADD50R,0.300000X48.300000*%
%ADD51R,0.300000X18.900000*%
%ADD52R,0.300000X48.000000*%
%ADD53R,0.300000X18.600000*%
%ADD54R,0.300000X46.500000*%
%ADD55R,0.300000X47.400000*%
%ADD56R,0.300000X18.300000*%
%ADD57R,0.300000X3.000000*%
%ADD58R,0.300000X18.000000*%
%ADD59R,0.300000X46.200000*%
%ADD60R,0.300000X0.900000*%
%ADD61R,0.300000X0.600000*%
%ADD62R,0.300000X2.400000*%
%ADD63R,0.300000X22.500000*%
%ADD64R,0.300000X2.700000*%
%ADD65R,0.300000X11.400000*%
%ADD66R,0.300000X11.700000*%
%ADD67R,0.300000X23.100000*%
%ADD68R,0.300000X3.300000*%
%ADD69R,0.300000X23.400000*%
%ADD70R,0.300000X3.600000*%
%ADD71R,0.300000X11.100000*%
%ADD72R,0.300000X24.600000*%
%ADD73R,0.300000X24.900000*%
%ADD74R,0.300000X25.200000*%
%ADD75R,0.300000X25.500000*%
%ADD76R,0.300000X25.800000*%
%ADD77R,0.300000X26.100000*%
%ADD78R,0.300000X26.400000*%
%ADD79R,0.300000X26.700000*%
%ADD80R,0.300000X27.300000*%
%ADD81R,0.300000X10.800000*%
%ADD82R,0.300000X27.900000*%
%ADD83R,0.300000X28.500000*%
%ADD84R,0.300000X28.800000*%
%ADD85R,0.300000X29.100000*%
%ADD86R,0.300000X29.700000*%
%ADD87R,0.300000X30.300000*%
%ADD88R,0.300000X30.900000*%
%ADD89R,0.300000X31.500000*%
%ADD90R,0.300000X32.400000*%
%ADD91R,0.300000X10.500000*%
%ADD92R,0.300000X33.600000*%
%ADD93R,0.300000X12.000000*%
%ADD94R,0.300000X35.100000*%
%ADD95R,0.300000X13.500000*%
%ADD96R,0.300000X36.600000*%
%ADD97R,0.300000X12.900000*%
%ADD98R,0.300000X39.300000*%
%ADD99R,0.300000X12.300000*%
%ADD100R,0.300000X44.100000*%
%ADD101R,0.300000X44.400000*%
%ADD102R,0.300000X42.600000*%
%ADD103R,0.300000X40.500000*%
%ADD104R,0.300000X38.400000*%
%ADD105R,0.300000X36.000000*%
%ADD106R,0.300000X10.200000*%
%ADD107R,0.300000X33.900000*%
%ADD108R,0.300000X31.200000*%
%ADD109R,0.300000X19.500000*%
%ADD110R,0.300000X15.000000*%
%ADD111R,0.300000X1.200000*%
%ADD112C,0.152400*%
%ADD113C,0.101600*%
%ADD114R,0.400000X0.400000*%


D10*
X81000Y352500D03*
D11*
X84000Y123000D03*
D12*
X84000Y178500D03*
D13*
X84000Y351000D03*
D14*
X84000Y493500D03*
D11*
X84000Y678000D03*
D12*
X84000Y1060500D03*
D15*
X84000Y1219500D03*
D16*
X84000Y1459500D03*
D11*
X87000Y123000D03*
D12*
X87000Y178500D03*
D11*
X87000Y351000D03*
D17*
X87000Y498000D03*
D11*
X87000Y678000D03*
D12*
X87000Y1060500D03*
D18*
X87000Y1218000D03*
D16*
X87000Y1459500D03*
D11*
X90000Y126000D03*
X90000Y180000D03*
D19*
X90000Y349500D03*
D20*
X90000Y499500D03*
D12*
X90000Y679500D03*
X90000Y1060500D03*
D21*
X90000Y1216500D03*
D22*
X90000Y1461000D03*
D11*
X93000Y126000D03*
X93000Y180000D03*
D23*
X93000Y349500D03*
D22*
X93000Y501000D03*
D12*
X93000Y679500D03*
D11*
X93000Y1062000D03*
D21*
X93000Y1216500D03*
D16*
X93000Y1462500D03*
D11*
X96000Y126000D03*
D12*
X96000Y181500D03*
D24*
X96000Y348000D03*
D16*
X96000Y502500D03*
D12*
X96000Y679500D03*
D11*
X96000Y1062000D03*
D21*
X96000Y1216500D03*
D16*
X96000Y1462500D03*
D11*
X99000Y126000D03*
D12*
X99000Y181500D03*
D25*
X99000Y348000D03*
D16*
X99000Y502500D03*
D11*
X99000Y681000D03*
D12*
X99000Y1063500D03*
D21*
X99000Y1216500D03*
D16*
X99000Y1462500D03*
D11*
X102000Y126000D03*
D12*
X102000Y181500D03*
D26*
X102000Y346500D03*
D16*
X102000Y505500D03*
D12*
X102000Y682500D03*
X102000Y1063500D03*
D27*
X102000Y1218000D03*
D16*
X102000Y1462500D03*
D11*
X105000Y129000D03*
X105000Y183000D03*
D28*
X105000Y343500D03*
D16*
X105000Y505500D03*
D12*
X105000Y682500D03*
X105000Y1063500D03*
D27*
X105000Y1218000D03*
D22*
X105000Y1464000D03*
D11*
X108000Y129000D03*
X108000Y183000D03*
D29*
X108000Y342000D03*
D16*
X108000Y505500D03*
D12*
X108000Y682500D03*
D11*
X108000Y1065000D03*
D27*
X108000Y1218000D03*
D16*
X108000Y1465500D03*
D11*
X111000Y129000D03*
D12*
X111000Y184500D03*
D30*
X111000Y342000D03*
D16*
X111000Y505500D03*
D11*
X111000Y684000D03*
X111000Y1065000D03*
D21*
X111000Y1219500D03*
D16*
X111000Y1465500D03*
D11*
X114000Y129000D03*
D12*
X114000Y184500D03*
D31*
X114000Y340500D03*
D12*
X114000Y595500D03*
D11*
X114000Y684000D03*
D12*
X114000Y1066500D03*
D11*
X114000Y1122000D03*
D16*
X114000Y1465500D03*
D11*
X117000Y129000D03*
D12*
X117000Y184500D03*
D32*
X117000Y339000D03*
D11*
X117000Y597000D03*
X117000Y684000D03*
D12*
X117000Y1066500D03*
D11*
X117000Y1122000D03*
X117000Y1377000D03*
X120000Y132000D03*
X120000Y186000D03*
D33*
X120000Y337500D03*
D11*
X120000Y597000D03*
D12*
X120000Y685500D03*
X120000Y1066500D03*
D11*
X120000Y1122000D03*
X120000Y1380000D03*
X123000Y132000D03*
X123000Y186000D03*
D34*
X123000Y336000D03*
D12*
X123000Y598500D03*
X123000Y685500D03*
D11*
X123000Y1068000D03*
X123000Y1122000D03*
X123000Y1380000D03*
X126000Y132000D03*
D12*
X126000Y187500D03*
D19*
X126000Y310500D03*
D35*
X126000Y364500D03*
D12*
X126000Y598500D03*
D11*
X126000Y687000D03*
X126000Y1068000D03*
X126000Y1125000D03*
X126000Y1380000D03*
X129000Y132000D03*
D12*
X129000Y187500D03*
D19*
X129000Y307500D03*
D35*
X129000Y364500D03*
D12*
X129000Y598500D03*
D11*
X129000Y687000D03*
D12*
X129000Y1069500D03*
D11*
X129000Y1125000D03*
X129000Y1380000D03*
X132000Y132000D03*
D12*
X132000Y187500D03*
D36*
X132000Y303000D03*
D35*
X132000Y364500D03*
D11*
X132000Y600000D03*
D12*
X132000Y688500D03*
X132000Y1069500D03*
D11*
X132000Y1125000D03*
X132000Y1380000D03*
X135000Y135000D03*
X135000Y189000D03*
D36*
X135000Y300000D03*
D11*
X135000Y366000D03*
D12*
X135000Y601500D03*
X135000Y688500D03*
X135000Y1069500D03*
D11*
X135000Y1125000D03*
X135000Y1383000D03*
X138000Y135000D03*
X138000Y189000D03*
D36*
X138000Y297000D03*
D11*
X138000Y366000D03*
D12*
X138000Y601500D03*
X138000Y688500D03*
D11*
X138000Y1071000D03*
X138000Y1125000D03*
X138000Y1383000D03*
X141000Y135000D03*
D12*
X141000Y190500D03*
D19*
X141000Y292500D03*
D35*
X141000Y367500D03*
D16*
X141000Y511500D03*
D14*
X141000Y772500D03*
D37*
X141000Y1008000D03*
D11*
X141000Y1128000D03*
D38*
X141000Y1447500D03*
D11*
X144000Y135000D03*
D12*
X144000Y190500D03*
D19*
X144000Y289500D03*
D35*
X144000Y367500D03*
D22*
X144000Y513000D03*
D20*
X144000Y775500D03*
D37*
X144000Y1008000D03*
D11*
X144000Y1128000D03*
D38*
X144000Y1447500D03*
D11*
X147000Y135000D03*
D12*
X147000Y190500D03*
D19*
X147000Y286500D03*
D11*
X147000Y369000D03*
D16*
X147000Y514500D03*
D20*
X147000Y778500D03*
D39*
X147000Y1009500D03*
D11*
X147000Y1128000D03*
D38*
X147000Y1447500D03*
D11*
X150000Y138000D03*
X150000Y192000D03*
D19*
X150000Y283500D03*
D11*
X150000Y369000D03*
D16*
X150000Y514500D03*
D22*
X150000Y780000D03*
D39*
X150000Y1009500D03*
D11*
X150000Y1128000D03*
D37*
X150000Y1449000D03*
D11*
X153000Y138000D03*
X153000Y192000D03*
D19*
X153000Y280500D03*
D11*
X153000Y369000D03*
D16*
X153000Y514500D03*
D22*
X153000Y780000D03*
D37*
X153000Y1011000D03*
D11*
X153000Y1128000D03*
D38*
X153000Y1450500D03*
D11*
X156000Y138000D03*
D12*
X156000Y193500D03*
D19*
X156000Y277500D03*
D35*
X156000Y370500D03*
D16*
X156000Y514500D03*
X156000Y781500D03*
D37*
X156000Y1011000D03*
D11*
X156000Y1131000D03*
D38*
X156000Y1450500D03*
D11*
X159000Y138000D03*
D12*
X159000Y193500D03*
D19*
X159000Y274500D03*
D35*
X159000Y370500D03*
D16*
X159000Y514500D03*
X159000Y781500D03*
D37*
X159000Y1011000D03*
D11*
X159000Y1131000D03*
D38*
X159000Y1450500D03*
D11*
X162000Y138000D03*
D12*
X162000Y193500D03*
D19*
X162000Y271500D03*
D11*
X162000Y372000D03*
D16*
X162000Y517500D03*
X162000Y784500D03*
D39*
X162000Y1012500D03*
D11*
X162000Y1131000D03*
D38*
X162000Y1450500D03*
D11*
X165000Y141000D03*
X165000Y195000D03*
D19*
X165000Y268500D03*
D11*
X165000Y372000D03*
D16*
X165000Y517500D03*
X165000Y784500D03*
D39*
X165000Y1012500D03*
D11*
X165000Y1131000D03*
D37*
X165000Y1452000D03*
D11*
X168000Y141000D03*
X168000Y195000D03*
D19*
X168000Y265500D03*
D11*
X168000Y372000D03*
D16*
X168000Y517500D03*
X168000Y784500D03*
D11*
X168000Y1077000D03*
X168000Y1131000D03*
D38*
X168000Y1453500D03*
D11*
X171000Y141000D03*
X171000Y195000D03*
D19*
X171000Y262500D03*
D35*
X171000Y373500D03*
D11*
X171000Y429000D03*
D12*
X171000Y874500D03*
X171000Y1078500D03*
D11*
X171000Y1134000D03*
X174000Y141000D03*
D12*
X174000Y196500D03*
D19*
X174000Y259500D03*
D35*
X174000Y373500D03*
D12*
X174000Y430500D03*
X174000Y874500D03*
X174000Y1078500D03*
D11*
X174000Y1134000D03*
X177000Y141000D03*
D12*
X177000Y196500D03*
D40*
X177000Y255000D03*
D11*
X177000Y375000D03*
X177000Y432000D03*
X177000Y876000D03*
D12*
X177000Y1078500D03*
D11*
X177000Y1134000D03*
X180000Y144000D03*
X180000Y198000D03*
D40*
X180000Y252000D03*
D11*
X180000Y375000D03*
X180000Y432000D03*
X180000Y876000D03*
D12*
X180000Y1078500D03*
D11*
X180000Y1134000D03*
X183000Y144000D03*
X183000Y198000D03*
D40*
X183000Y249000D03*
D11*
X183000Y375000D03*
X183000Y432000D03*
D12*
X183000Y877500D03*
D11*
X183000Y1080000D03*
X183000Y1134000D03*
X186000Y144000D03*
D32*
X186000Y225000D03*
D35*
X186000Y376500D03*
D11*
X186000Y432000D03*
D12*
X186000Y877500D03*
D11*
X186000Y1080000D03*
X186000Y1137000D03*
X189000Y144000D03*
D31*
X189000Y223500D03*
D11*
X189000Y378000D03*
D12*
X189000Y433500D03*
X189000Y877500D03*
X189000Y1081500D03*
D11*
X189000Y1137000D03*
X192000Y144000D03*
D30*
X192000Y222000D03*
D11*
X192000Y378000D03*
X192000Y435000D03*
D12*
X192000Y877500D03*
X192000Y1081500D03*
D11*
X192000Y1137000D03*
X195000Y147000D03*
D41*
X195000Y220500D03*
D11*
X195000Y378000D03*
X195000Y435000D03*
X195000Y879000D03*
D42*
X195000Y915000D03*
D11*
X195000Y1080000D03*
X195000Y1137000D03*
D42*
X195000Y1167000D03*
X195000Y1581000D03*
D11*
X198000Y147000D03*
D29*
X198000Y219000D03*
D11*
X198000Y378000D03*
D43*
X198000Y657000D03*
D44*
X198000Y1009500D03*
D45*
X198000Y1350000D03*
D11*
X201000Y147000D03*
D46*
X201000Y219000D03*
D11*
X201000Y381000D03*
D43*
X201000Y657000D03*
D44*
X201000Y1009500D03*
D47*
X201000Y1351500D03*
D11*
X204000Y147000D03*
D26*
X204000Y217500D03*
D11*
X204000Y381000D03*
D43*
X204000Y657000D03*
D44*
X204000Y1009500D03*
D47*
X204000Y1351500D03*
D11*
X207000Y147000D03*
D48*
X207000Y217500D03*
D11*
X207000Y381000D03*
D49*
X207000Y658500D03*
D44*
X207000Y1009500D03*
D45*
X207000Y1353000D03*
D11*
X210000Y150000D03*
D24*
X210000Y216000D03*
D11*
X210000Y381000D03*
D49*
X210000Y658500D03*
D44*
X210000Y1009500D03*
D47*
X210000Y1354500D03*
D11*
X213000Y150000D03*
D19*
X213000Y214500D03*
D11*
X213000Y381000D03*
D50*
X213000Y660000D03*
D51*
X213000Y1011000D03*
D47*
X213000Y1354500D03*
D11*
X216000Y150000D03*
D35*
X216000Y214500D03*
D11*
X216000Y384000D03*
D52*
X216000Y661500D03*
D53*
X216000Y1009500D03*
D54*
X216000Y1356000D03*
D11*
X219000Y150000D03*
D12*
X219000Y214500D03*
D11*
X219000Y384000D03*
D55*
X219000Y661500D03*
D56*
X219000Y1008000D03*
D54*
X219000Y1359000D03*
D11*
X222000Y150000D03*
D57*
X222000Y214500D03*
D11*
X222000Y384000D03*
D47*
X222000Y661500D03*
D58*
X222000Y1006500D03*
D59*
X222000Y1360500D03*
D42*
X225000Y132000D03*
X225000Y171000D03*
D60*
X225000Y216000D03*
D42*
X225000Y366000D03*
X225000Y405000D03*
X225000Y921000D03*
D61*
X225000Y1588500D03*
D62*
X243000Y145500D03*
D63*
X243000Y1476000D03*
D64*
X246000Y150000D03*
D63*
X246000Y1473000D03*
D64*
X249000Y156000D03*
D65*
X249000Y538500D03*
D63*
X249000Y1467000D03*
D64*
X252000Y162000D03*
D65*
X252000Y541500D03*
D15*
X252000Y1459500D03*
D57*
X255000Y166500D03*
D66*
X255000Y543000D03*
D15*
X255000Y1453500D03*
D57*
X258000Y172500D03*
D65*
X258000Y544500D03*
D15*
X258000Y1447500D03*
D57*
X261000Y178500D03*
D65*
X261000Y547500D03*
D15*
X261000Y1441500D03*
D57*
X264000Y184500D03*
D66*
X264000Y549000D03*
D15*
X264000Y1435500D03*
D57*
X267000Y190500D03*
D65*
X267000Y550500D03*
D67*
X267000Y1428000D03*
D57*
X270000Y196500D03*
D65*
X270000Y553500D03*
D67*
X270000Y1422000D03*
D68*
X273000Y204000D03*
D65*
X273000Y556500D03*
D67*
X273000Y1416000D03*
D68*
X276000Y210000D03*
D65*
X276000Y556500D03*
D69*
X276000Y1408500D03*
D68*
X279000Y216000D03*
D65*
X279000Y559500D03*
D69*
X279000Y1402500D03*
D68*
X282000Y222000D03*
D65*
X282000Y562500D03*
D18*
X282000Y1395000D03*
D68*
X285000Y231000D03*
D65*
X285000Y565500D03*
D18*
X285000Y1389000D03*
D68*
X288000Y237000D03*
D65*
X288000Y568500D03*
D21*
X288000Y1381500D03*
D70*
X291000Y244500D03*
D65*
X291000Y571500D03*
D21*
X291000Y1372500D03*
D70*
X294000Y250500D03*
D71*
X294000Y573000D03*
D21*
X294000Y1366500D03*
D13*
X297000Y258000D03*
D71*
X297000Y576000D03*
D27*
X297000Y1359000D03*
D70*
X300000Y265500D03*
D71*
X300000Y579000D03*
D27*
X300000Y1350000D03*
D13*
X303000Y273000D03*
D71*
X303000Y582000D03*
D72*
X303000Y1342500D03*
D12*
X306000Y280500D03*
D71*
X306000Y585000D03*
D73*
X306000Y1335000D03*
D13*
X309000Y288000D03*
D71*
X309000Y588000D03*
D73*
X309000Y1326000D03*
D12*
X312000Y295500D03*
D71*
X312000Y591000D03*
D74*
X312000Y1318500D03*
D12*
X315000Y304500D03*
D71*
X315000Y594000D03*
D74*
X315000Y1309500D03*
D11*
X318000Y312000D03*
D71*
X318000Y597000D03*
D75*
X318000Y1302000D03*
D11*
X321000Y321000D03*
D65*
X321000Y601500D03*
D76*
X321000Y1291500D03*
D11*
X324000Y330000D03*
D71*
X324000Y606000D03*
D77*
X324000Y1284000D03*
D40*
X327000Y339000D03*
D71*
X327000Y609000D03*
D78*
X327000Y1273500D03*
D40*
X330000Y348000D03*
D71*
X330000Y612000D03*
D78*
X330000Y1264500D03*
D19*
X333000Y358500D03*
D71*
X333000Y615000D03*
D79*
X333000Y1254000D03*
D36*
X336000Y366000D03*
D71*
X336000Y621000D03*
D80*
X336000Y1245000D03*
D36*
X339000Y378000D03*
D71*
X339000Y624000D03*
D80*
X339000Y1233000D03*
D23*
X342000Y388500D03*
D81*
X342000Y628500D03*
D82*
X342000Y1221000D03*
D48*
X345000Y397500D03*
D81*
X345000Y631500D03*
D83*
X345000Y1212000D03*
D48*
X348000Y409500D03*
D71*
X348000Y636000D03*
D84*
X348000Y1198500D03*
D25*
X351000Y420000D03*
D81*
X351000Y640500D03*
D85*
X351000Y1188000D03*
D46*
X354000Y432000D03*
D71*
X354000Y645000D03*
D86*
X354000Y1176000D03*
D29*
X357000Y444000D03*
D81*
X357000Y649500D03*
D87*
X357000Y1164000D03*
D41*
X360000Y457500D03*
D81*
X360000Y655500D03*
D88*
X360000Y1149000D03*
D32*
X363000Y471000D03*
D81*
X363000Y658500D03*
D89*
X363000Y1134000D03*
D34*
X366000Y486000D03*
D81*
X366000Y664500D03*
D90*
X366000Y1120500D03*
D91*
X369000Y501000D03*
D81*
X369000Y667500D03*
D92*
X369000Y1102500D03*
D42*
X369000Y1449000D03*
D93*
X372000Y520500D03*
D81*
X372000Y673500D03*
D94*
X372000Y1083000D03*
D42*
X372000Y1449000D03*
D95*
X375000Y537000D03*
D91*
X375000Y678000D03*
D96*
X375000Y1063500D03*
D42*
X375000Y1449000D03*
D97*
X378000Y549000D03*
D91*
X378000Y684000D03*
D98*
X378000Y1038000D03*
D61*
X378000Y1450500D03*
D99*
X381000Y558000D03*
D91*
X381000Y690000D03*
D42*
X381000Y765000D03*
D100*
X381000Y1002000D03*
D61*
X381000Y1450500D03*
D65*
X384000Y565500D03*
D91*
X384000Y693000D03*
D101*
X384000Y985500D03*
D61*
X384000Y1450500D03*
D91*
X387000Y576000D03*
X387000Y699000D03*
D102*
X387000Y982500D03*
D61*
X387000Y1450500D03*
D33*
X390000Y586500D03*
D91*
X390000Y705000D03*
D103*
X390000Y978000D03*
D61*
X390000Y1450500D03*
D30*
X393000Y597000D03*
D91*
X393000Y711000D03*
D104*
X393000Y973500D03*
D57*
X393000Y1450500D03*
D28*
X396000Y607500D03*
D91*
X396000Y717000D03*
D105*
X396000Y967500D03*
D23*
X396000Y1450500D03*
D48*
X399000Y619500D03*
D106*
X399000Y721500D03*
D107*
X399000Y963000D03*
D60*
X399000Y1449000D03*
D19*
X402000Y631500D03*
D106*
X402000Y727500D03*
D108*
X402000Y955500D03*
D61*
X402000Y1450500D03*
D13*
X405000Y645000D03*
D34*
X405000Y735000D03*
D83*
X405000Y948000D03*
D61*
X405000Y1450500D03*
D62*
X408000Y658500D03*
D34*
X408000Y741000D03*
D76*
X408000Y940500D03*
D61*
X408000Y1450500D03*
D42*
X411000Y672000D03*
D34*
X411000Y747000D03*
D15*
X411000Y931500D03*
D61*
X411000Y1450500D03*
D34*
X414000Y753000D03*
D109*
X414000Y921000D03*
D61*
X414000Y1450500D03*
D34*
X417000Y762000D03*
D110*
X417000Y907500D03*
D42*
X417000Y1449000D03*
D34*
X420000Y768000D03*
D32*
X420000Y885000D03*
D42*
X420000Y1449000D03*
D34*
X423000Y774000D03*
D42*
X423000Y1449000D03*
D33*
X426000Y781500D03*
X429000Y787500D03*
X432000Y796500D03*
X435000Y802500D03*
D32*
X438000Y810000D03*
X441000Y819000D03*
D31*
X444000Y826500D03*
D32*
X447000Y834000D03*
X450000Y843000D03*
D31*
X453000Y850500D03*
X456000Y859500D03*
D30*
X459000Y867000D03*
X462000Y876000D03*
X465000Y885000D03*
D41*
X468000Y895500D03*
X471000Y904500D03*
X474000Y913500D03*
D29*
X477000Y924000D03*
X480000Y933000D03*
D28*
X483000Y943500D03*
D46*
X486000Y954000D03*
D42*
X489000Y696000D03*
D28*
X489000Y964500D03*
D42*
X492000Y696000D03*
D46*
X492000Y975000D03*
D61*
X495000Y697500D03*
D26*
X495000Y985500D03*
D61*
X498000Y697500D03*
D26*
X498000Y997500D03*
D61*
X501000Y697500D03*
D25*
X501000Y1008000D03*
D61*
X504000Y697500D03*
D25*
X504000Y1020000D03*
D12*
X507000Y697500D03*
D48*
X507000Y1033500D03*
D61*
X510000Y697500D03*
D24*
X510000Y1044000D03*
D61*
X513000Y697500D03*
D23*
X513000Y1057500D03*
D61*
X516000Y697500D03*
D23*
X516000Y1069500D03*
D61*
X519000Y697500D03*
D36*
X519000Y1083000D03*
D42*
X522000Y696000D03*
D36*
X522000Y1098000D03*
D42*
X525000Y696000D03*
D19*
X525000Y1111500D03*
D40*
X528000Y1125000D03*
D35*
X531000Y1141500D03*
D12*
X534000Y1156500D03*
X537000Y1171500D03*
D70*
X540000Y1186500D03*
D68*
X543000Y1203000D03*
X546000Y1221000D03*
D64*
X549000Y1239000D03*
D62*
X552000Y1258500D03*
D10*
X555000Y1276500D03*
D61*
X558000Y1288500D03*
D42*
X579000Y378000D03*
X582000Y378000D03*
D61*
X585000Y376500D03*
X588000Y376500D03*
X591000Y376500D03*
X594000Y376500D03*
X597000Y376500D03*
X600000Y376500D03*
X603000Y376500D03*
X606000Y376500D03*
D111*
X609000Y376500D03*
D24*
X612000Y378000D03*
D46*
X615000Y378000D03*
D111*
X618000Y376500D03*
D60*
X621000Y378000D03*
D61*
X624000Y376500D03*
D42*
X624000Y1176000D03*
D61*
X627000Y376500D03*
D42*
X627000Y1176000D03*
D61*
X630000Y376500D03*
D42*
X630000Y1176000D03*
D61*
X633000Y376500D03*
D42*
X633000Y1176000D03*
D61*
X636000Y376500D03*
D42*
X636000Y1176000D03*
D61*
X639000Y376500D03*
X639000Y1174500D03*
X642000Y376500D03*
X642000Y1174500D03*
X645000Y376500D03*
X645000Y1174500D03*
D42*
X648000Y378000D03*
D61*
X648000Y1174500D03*
D42*
X651000Y378000D03*
D111*
X651000Y1174500D03*
D23*
X654000Y1174500D03*
D64*
X657000Y1176000D03*
D61*
X660000Y1174500D03*
X663000Y1174500D03*
X666000Y1174500D03*
X669000Y1174500D03*
D42*
X672000Y1176000D03*
X675000Y1176000D03*
X678000Y1176000D03*
X681000Y1176000D03*
X684000Y1176000D03*
D112*
X672030Y747160D02*
X699970Y747160D01*
X702510Y729380D02*
X702508Y729280D01*
X702502Y729181D01*
X702492Y729081D01*
X702479Y728983D01*
X702461Y728884D01*
X702440Y728787D01*
X702415Y728691D01*
X702386Y728595D01*
X702353Y728501D01*
X702317Y728408D01*
X702277Y728317D01*
X702233Y728227D01*
X702186Y728139D01*
X702136Y728053D01*
X702082Y727969D01*
X702025Y727887D01*
X701965Y727808D01*
X701901Y727730D01*
X701835Y727656D01*
X701766Y727584D01*
X701694Y727515D01*
X701620Y727449D01*
X701542Y727385D01*
X701463Y727325D01*
X701381Y727268D01*
X701297Y727214D01*
X701211Y727164D01*
X701123Y727117D01*
X701033Y727073D01*
X700942Y727033D01*
X700849Y726997D01*
X700755Y726964D01*
X700659Y726935D01*
X700563Y726910D01*
X700466Y726889D01*
X700367Y726871D01*
X700269Y726858D01*
X700169Y726848D01*
X700070Y726842D01*
X699970Y726840D01*
X672030Y726840D02*
X671930Y726842D01*
X671831Y726848D01*
X671731Y726858D01*
X671633Y726871D01*
X671534Y726889D01*
X671437Y726910D01*
X671341Y726935D01*
X671245Y726964D01*
X671151Y726997D01*
X671058Y727033D01*
X670967Y727073D01*
X670877Y727117D01*
X670789Y727164D01*
X670703Y727214D01*
X670619Y727268D01*
X670537Y727325D01*
X670458Y727385D01*
X670380Y727449D01*
X670306Y727515D01*
X670234Y727584D01*
X670165Y727656D01*
X670099Y727730D01*
X670035Y727808D01*
X669975Y727887D01*
X669918Y727969D01*
X669864Y728053D01*
X669814Y728139D01*
X669767Y728227D01*
X669723Y728317D01*
X669683Y728408D01*
X669647Y728501D01*
X669614Y728595D01*
X669585Y728691D01*
X669560Y728787D01*
X669539Y728884D01*
X669521Y728983D01*
X669508Y729081D01*
X669498Y729181D01*
X669492Y729280D01*
X669490Y729380D01*
X669490Y744620D02*
X669492Y744720D01*
X669498Y744819D01*
X669508Y744919D01*
X669521Y745017D01*
X669539Y745116D01*
X669560Y745213D01*
X669585Y745309D01*
X669614Y745405D01*
X669647Y745499D01*
X669683Y745592D01*
X669723Y745683D01*
X669767Y745773D01*
X669814Y745861D01*
X669864Y745947D01*
X669918Y746031D01*
X669975Y746113D01*
X670035Y746192D01*
X670099Y746270D01*
X670165Y746344D01*
X670234Y746416D01*
X670306Y746485D01*
X670380Y746551D01*
X670458Y746615D01*
X670537Y746675D01*
X670619Y746732D01*
X670703Y746786D01*
X670789Y746836D01*
X670877Y746883D01*
X670967Y746927D01*
X671058Y746967D01*
X671151Y747003D01*
X671245Y747036D01*
X671341Y747065D01*
X671437Y747090D01*
X671534Y747111D01*
X671633Y747129D01*
X671731Y747142D01*
X671831Y747152D01*
X671930Y747158D01*
X672030Y747160D01*
X699970Y747160D02*
X700070Y747158D01*
X700169Y747152D01*
X700269Y747142D01*
X700367Y747129D01*
X700466Y747111D01*
X700563Y747090D01*
X700659Y747065D01*
X700755Y747036D01*
X700849Y747003D01*
X700942Y746967D01*
X701033Y746927D01*
X701123Y746883D01*
X701211Y746836D01*
X701297Y746786D01*
X701381Y746732D01*
X701463Y746675D01*
X701542Y746615D01*
X701620Y746551D01*
X701694Y746485D01*
X701766Y746416D01*
X701835Y746344D01*
X701901Y746270D01*
X701965Y746192D01*
X702025Y746113D01*
X702082Y746031D01*
X702136Y745947D01*
X702186Y745861D01*
X702233Y745773D01*
X702277Y745683D01*
X702317Y745592D01*
X702353Y745499D01*
X702386Y745405D01*
X702415Y745309D01*
X702440Y745213D01*
X702461Y745116D01*
X702479Y745017D01*
X702492Y744919D01*
X702502Y744819D01*
X702508Y744720D01*
X702510Y744620D01*
X702510Y729380D01*
X669490Y729380D02*
X669490Y744620D01*
X672030Y726840D02*
X699970Y726840D01*
D113*
X702998Y718074D02*
X703000Y717987D01*
X703006Y717900D01*
X703015Y717813D01*
X703028Y717727D01*
X703045Y717642D01*
X703066Y717557D01*
X703090Y717474D01*
X703118Y717391D01*
X703150Y717310D01*
X703185Y717230D01*
X703224Y717152D01*
X703265Y717076D01*
X703311Y717002D01*
X703359Y716929D01*
X703410Y716859D01*
X703465Y716791D01*
X703522Y716726D01*
X703583Y716663D01*
X703646Y716602D01*
X703711Y716545D01*
X703779Y716490D01*
X703849Y716439D01*
X703922Y716391D01*
X703996Y716345D01*
X704072Y716304D01*
X704150Y716265D01*
X704230Y716230D01*
X704311Y716198D01*
X704394Y716170D01*
X704477Y716146D01*
X704562Y716125D01*
X704647Y716108D01*
X704733Y716095D01*
X704820Y716086D01*
X704907Y716080D01*
X704994Y716078D01*
X705122Y716080D01*
X705250Y716086D01*
X705378Y716095D01*
X705505Y716109D01*
X705632Y716127D01*
X705758Y716148D01*
X705884Y716173D01*
X706009Y716202D01*
X706133Y716235D01*
X706255Y716271D01*
X706377Y716311D01*
X706497Y716355D01*
X706616Y716402D01*
X706734Y716454D01*
X706850Y716508D01*
X706964Y716566D01*
X707076Y716628D01*
X707187Y716693D01*
X707295Y716761D01*
X707401Y716832D01*
X707505Y716907D01*
X707607Y716985D01*
X707706Y717066D01*
X707803Y717150D01*
X707897Y717236D01*
X707989Y717326D01*
X707739Y723066D02*
X707737Y723153D01*
X707731Y723240D01*
X707722Y723327D01*
X707709Y723413D01*
X707692Y723498D01*
X707671Y723583D01*
X707647Y723666D01*
X707619Y723749D01*
X707587Y723830D01*
X707552Y723910D01*
X707513Y723988D01*
X707472Y724064D01*
X707426Y724138D01*
X707378Y724211D01*
X707327Y724281D01*
X707272Y724349D01*
X707215Y724414D01*
X707154Y724477D01*
X707091Y724538D01*
X707026Y724595D01*
X706958Y724650D01*
X706888Y724701D01*
X706815Y724749D01*
X706741Y724795D01*
X706665Y724836D01*
X706587Y724875D01*
X706507Y724910D01*
X706426Y724942D01*
X706343Y724970D01*
X706260Y724994D01*
X706175Y725015D01*
X706090Y725032D01*
X706004Y725045D01*
X705917Y725054D01*
X705830Y725060D01*
X705743Y725062D01*
X705623Y725060D01*
X705502Y725054D01*
X705382Y725045D01*
X705263Y725031D01*
X705143Y725014D01*
X705025Y724992D01*
X704907Y724967D01*
X704790Y724939D01*
X704674Y724906D01*
X704559Y724870D01*
X704446Y724830D01*
X704333Y724786D01*
X704223Y724739D01*
X704113Y724689D01*
X704006Y724634D01*
X703900Y724577D01*
X703796Y724516D01*
X703694Y724452D01*
X703595Y724384D01*
X703497Y724313D01*
X706742Y721319D02*
X706816Y721365D01*
X706889Y721414D01*
X706959Y721467D01*
X707027Y721522D01*
X707093Y721580D01*
X707156Y721642D01*
X707216Y721705D01*
X707273Y721772D01*
X707328Y721840D01*
X707379Y721911D01*
X707428Y721985D01*
X707473Y722060D01*
X707515Y722137D01*
X707553Y722216D01*
X707588Y722296D01*
X707620Y722378D01*
X707648Y722461D01*
X707672Y722545D01*
X707693Y722631D01*
X707710Y722717D01*
X707723Y722804D01*
X707732Y722891D01*
X707738Y722978D01*
X707740Y723066D01*
X703995Y719821D02*
X703921Y719775D01*
X703848Y719726D01*
X703778Y719673D01*
X703710Y719618D01*
X703644Y719560D01*
X703581Y719498D01*
X703521Y719435D01*
X703464Y719368D01*
X703409Y719300D01*
X703358Y719229D01*
X703309Y719155D01*
X703264Y719080D01*
X703222Y719003D01*
X703184Y718924D01*
X703149Y718844D01*
X703117Y718762D01*
X703089Y718679D01*
X703065Y718595D01*
X703044Y718509D01*
X703027Y718423D01*
X703014Y718336D01*
X703005Y718249D01*
X702999Y718162D01*
X702997Y718074D01*
X703996Y719821D02*
X706741Y721319D01*
X697256Y718074D02*
X697256Y725062D01*
X697257Y718074D02*
X697259Y717987D01*
X697265Y717900D01*
X697274Y717813D01*
X697287Y717727D01*
X697304Y717642D01*
X697325Y717557D01*
X697349Y717474D01*
X697377Y717391D01*
X697409Y717310D01*
X697444Y717230D01*
X697483Y717152D01*
X697524Y717076D01*
X697570Y717002D01*
X697618Y716929D01*
X697669Y716859D01*
X697724Y716791D01*
X697781Y716726D01*
X697842Y716663D01*
X697905Y716602D01*
X697970Y716545D01*
X698038Y716490D01*
X698108Y716439D01*
X698181Y716391D01*
X698255Y716345D01*
X698331Y716304D01*
X698409Y716265D01*
X698489Y716230D01*
X698570Y716198D01*
X698653Y716170D01*
X698736Y716146D01*
X698821Y716125D01*
X698906Y716108D01*
X698992Y716095D01*
X699079Y716086D01*
X699166Y716080D01*
X699253Y716078D01*
X700251Y716078D01*
X690244Y725062D02*
X690151Y725060D01*
X690059Y725054D01*
X689966Y725045D01*
X689874Y725031D01*
X689783Y725014D01*
X689693Y724993D01*
X689603Y724969D01*
X689515Y724940D01*
X689428Y724908D01*
X689342Y724873D01*
X689258Y724834D01*
X689175Y724791D01*
X689094Y724745D01*
X689016Y724696D01*
X688939Y724644D01*
X688864Y724588D01*
X688792Y724530D01*
X688723Y724468D01*
X688656Y724404D01*
X688592Y724337D01*
X688530Y724268D01*
X688472Y724196D01*
X688416Y724121D01*
X688364Y724044D01*
X688315Y723966D01*
X688269Y723885D01*
X688226Y723802D01*
X688187Y723718D01*
X688152Y723632D01*
X688120Y723545D01*
X688091Y723457D01*
X688067Y723367D01*
X688046Y723277D01*
X688029Y723186D01*
X688015Y723094D01*
X688006Y723001D01*
X688000Y722909D01*
X687998Y722816D01*
X690244Y725062D02*
X690351Y725060D01*
X690457Y725054D01*
X690563Y725044D01*
X690669Y725030D01*
X690775Y725013D01*
X690879Y724991D01*
X690983Y724966D01*
X691085Y724937D01*
X691187Y724904D01*
X691287Y724867D01*
X691386Y724826D01*
X691483Y724782D01*
X691578Y724735D01*
X691672Y724684D01*
X691764Y724629D01*
X691853Y724571D01*
X691941Y724510D01*
X692026Y724446D01*
X692109Y724378D01*
X692189Y724308D01*
X692266Y724235D01*
X692341Y724158D01*
X692413Y724079D01*
X692482Y723998D01*
X692548Y723914D01*
X692610Y723828D01*
X692670Y723739D01*
X692726Y723648D01*
X692778Y723555D01*
X692828Y723461D01*
X692873Y723364D01*
X692915Y723266D01*
X692954Y723167D01*
X692989Y723066D01*
X688747Y721069D02*
X688677Y721138D01*
X688611Y721210D01*
X688547Y721284D01*
X688487Y721361D01*
X688429Y721440D01*
X688375Y721521D01*
X688324Y721604D01*
X688277Y721690D01*
X688233Y721777D01*
X688193Y721866D01*
X688156Y721956D01*
X688123Y722048D01*
X688094Y722142D01*
X688069Y722236D01*
X688047Y722331D01*
X688030Y722427D01*
X688016Y722524D01*
X688006Y722621D01*
X688000Y722718D01*
X687998Y722816D01*
X688747Y721069D02*
X692989Y716078D01*
X687998Y716078D01*
X683990Y720570D02*
X683988Y720747D01*
X683982Y720923D01*
X683971Y721100D01*
X683956Y721276D01*
X683937Y721452D01*
X683914Y721627D01*
X683887Y721802D01*
X683855Y721975D01*
X683820Y722149D01*
X683780Y722321D01*
X683736Y722492D01*
X683688Y722662D01*
X683636Y722831D01*
X683580Y722999D01*
X683520Y723165D01*
X683456Y723330D01*
X683389Y723493D01*
X683317Y723655D01*
X683241Y723814D01*
X683212Y723894D01*
X683179Y723972D01*
X683142Y724048D01*
X683102Y724123D01*
X683059Y724196D01*
X683012Y724267D01*
X682962Y724336D01*
X682909Y724402D01*
X682853Y724466D01*
X682794Y724527D01*
X682733Y724585D01*
X682668Y724640D01*
X682602Y724693D01*
X682533Y724742D01*
X682461Y724788D01*
X682388Y724831D01*
X682313Y724870D01*
X682236Y724906D01*
X682158Y724939D01*
X682078Y724967D01*
X681997Y724992D01*
X681915Y725013D01*
X681832Y725031D01*
X681748Y725044D01*
X681663Y725054D01*
X681579Y725060D01*
X681494Y725062D01*
X681409Y725060D01*
X681325Y725054D01*
X681240Y725044D01*
X681156Y725031D01*
X681073Y725013D01*
X680991Y724992D01*
X680910Y724967D01*
X680830Y724939D01*
X680752Y724906D01*
X680675Y724870D01*
X680600Y724831D01*
X680527Y724788D01*
X680455Y724742D01*
X680386Y724693D01*
X680320Y724640D01*
X680255Y724585D01*
X680194Y724527D01*
X680135Y724466D01*
X680079Y724402D01*
X680026Y724336D01*
X679976Y724267D01*
X679929Y724196D01*
X679886Y724123D01*
X679846Y724048D01*
X679809Y723972D01*
X679776Y723894D01*
X679747Y723814D01*
X679671Y723654D01*
X679599Y723493D01*
X679532Y723330D01*
X679468Y723165D01*
X679408Y722998D01*
X679352Y722831D01*
X679300Y722662D01*
X679252Y722492D01*
X679208Y722321D01*
X679168Y722148D01*
X679133Y721975D01*
X679101Y721801D01*
X679074Y721627D01*
X679051Y721452D01*
X679032Y721276D01*
X679017Y721100D01*
X679006Y720923D01*
X679000Y720747D01*
X678998Y720570D01*
X683989Y720570D02*
X683987Y720393D01*
X683981Y720217D01*
X683970Y720040D01*
X683955Y719864D01*
X683936Y719688D01*
X683913Y719513D01*
X683886Y719338D01*
X683854Y719165D01*
X683819Y718991D01*
X683779Y718819D01*
X683735Y718648D01*
X683687Y718478D01*
X683635Y718309D01*
X683579Y718141D01*
X683519Y717975D01*
X683455Y717810D01*
X683388Y717647D01*
X683316Y717485D01*
X683240Y717326D01*
X683241Y717326D02*
X683212Y717246D01*
X683179Y717168D01*
X683142Y717092D01*
X683102Y717017D01*
X683059Y716944D01*
X683012Y716873D01*
X682962Y716804D01*
X682909Y716738D01*
X682853Y716674D01*
X682794Y716613D01*
X682733Y716555D01*
X682668Y716500D01*
X682602Y716447D01*
X682533Y716398D01*
X682461Y716352D01*
X682388Y716309D01*
X682313Y716270D01*
X682236Y716234D01*
X682158Y716201D01*
X682078Y716173D01*
X681997Y716148D01*
X681915Y716127D01*
X681832Y716109D01*
X681748Y716096D01*
X681663Y716086D01*
X681579Y716080D01*
X681494Y716078D01*
X679747Y717326D02*
X679671Y717485D01*
X679599Y717647D01*
X679532Y717810D01*
X679468Y717975D01*
X679408Y718141D01*
X679352Y718309D01*
X679300Y718478D01*
X679252Y718648D01*
X679208Y718819D01*
X679168Y718991D01*
X679133Y719165D01*
X679101Y719338D01*
X679074Y719513D01*
X679051Y719688D01*
X679032Y719864D01*
X679017Y720040D01*
X679006Y720217D01*
X679000Y720393D01*
X678998Y720570D01*
X679747Y717326D02*
X679776Y717246D01*
X679809Y717168D01*
X679846Y717092D01*
X679886Y717017D01*
X679929Y716944D01*
X679976Y716873D01*
X680026Y716804D01*
X680079Y716738D01*
X680135Y716674D01*
X680194Y716613D01*
X680255Y716555D01*
X680320Y716499D01*
X680386Y716447D01*
X680455Y716398D01*
X680527Y716352D01*
X680600Y716309D01*
X680675Y716270D01*
X680752Y716234D01*
X680830Y716201D01*
X680910Y716173D01*
X680991Y716148D01*
X681073Y716127D01*
X681156Y716109D01*
X681240Y716096D01*
X681325Y716086D01*
X681409Y716080D01*
X681494Y716078D01*
X683490Y718074D02*
X679497Y723066D01*
X674990Y720570D02*
X674988Y720747D01*
X674982Y720923D01*
X674971Y721100D01*
X674956Y721276D01*
X674937Y721452D01*
X674914Y721627D01*
X674887Y721802D01*
X674855Y721975D01*
X674820Y722149D01*
X674780Y722321D01*
X674736Y722492D01*
X674688Y722662D01*
X674636Y722831D01*
X674580Y722999D01*
X674520Y723165D01*
X674456Y723330D01*
X674389Y723493D01*
X674317Y723655D01*
X674241Y723814D01*
X674212Y723894D01*
X674179Y723972D01*
X674142Y724048D01*
X674102Y724123D01*
X674059Y724196D01*
X674012Y724267D01*
X673962Y724336D01*
X673909Y724402D01*
X673853Y724466D01*
X673794Y724527D01*
X673733Y724585D01*
X673668Y724640D01*
X673602Y724693D01*
X673533Y724742D01*
X673461Y724788D01*
X673388Y724831D01*
X673313Y724870D01*
X673236Y724906D01*
X673158Y724939D01*
X673078Y724967D01*
X672997Y724992D01*
X672915Y725013D01*
X672832Y725031D01*
X672748Y725044D01*
X672663Y725054D01*
X672579Y725060D01*
X672494Y725062D01*
X672409Y725060D01*
X672325Y725054D01*
X672240Y725044D01*
X672156Y725031D01*
X672073Y725013D01*
X671991Y724992D01*
X671910Y724967D01*
X671830Y724939D01*
X671752Y724906D01*
X671675Y724870D01*
X671600Y724831D01*
X671527Y724788D01*
X671455Y724742D01*
X671386Y724693D01*
X671320Y724640D01*
X671255Y724585D01*
X671194Y724527D01*
X671135Y724466D01*
X671079Y724402D01*
X671026Y724336D01*
X670976Y724267D01*
X670929Y724196D01*
X670886Y724123D01*
X670846Y724048D01*
X670809Y723972D01*
X670776Y723894D01*
X670747Y723814D01*
X670671Y723654D01*
X670599Y723493D01*
X670532Y723330D01*
X670468Y723165D01*
X670408Y722998D01*
X670352Y722831D01*
X670300Y722662D01*
X670252Y722492D01*
X670208Y722321D01*
X670168Y722148D01*
X670133Y721975D01*
X670101Y721801D01*
X670074Y721627D01*
X670051Y721452D01*
X670032Y721276D01*
X670017Y721100D01*
X670006Y720923D01*
X670000Y720747D01*
X669998Y720570D01*
X674989Y720570D02*
X674987Y720393D01*
X674981Y720217D01*
X674970Y720040D01*
X674955Y719864D01*
X674936Y719688D01*
X674913Y719513D01*
X674886Y719338D01*
X674854Y719165D01*
X674819Y718991D01*
X674779Y718819D01*
X674735Y718648D01*
X674687Y718478D01*
X674635Y718309D01*
X674579Y718141D01*
X674519Y717975D01*
X674455Y717810D01*
X674388Y717647D01*
X674316Y717485D01*
X674240Y717326D01*
X674241Y717326D02*
X674212Y717246D01*
X674179Y717168D01*
X674142Y717092D01*
X674102Y717017D01*
X674059Y716944D01*
X674012Y716873D01*
X673962Y716804D01*
X673909Y716738D01*
X673853Y716674D01*
X673794Y716613D01*
X673733Y716555D01*
X673668Y716500D01*
X673602Y716447D01*
X673533Y716398D01*
X673461Y716352D01*
X673388Y716309D01*
X673313Y716270D01*
X673236Y716234D01*
X673158Y716201D01*
X673078Y716173D01*
X672997Y716148D01*
X672915Y716127D01*
X672832Y716109D01*
X672748Y716096D01*
X672663Y716086D01*
X672579Y716080D01*
X672494Y716078D01*
X670747Y717326D02*
X670671Y717485D01*
X670599Y717647D01*
X670532Y717810D01*
X670468Y717975D01*
X670408Y718141D01*
X670352Y718309D01*
X670300Y718478D01*
X670252Y718648D01*
X670208Y718819D01*
X670168Y718991D01*
X670133Y719165D01*
X670101Y719338D01*
X670074Y719513D01*
X670051Y719688D01*
X670032Y719864D01*
X670017Y720040D01*
X670006Y720217D01*
X670000Y720393D01*
X669998Y720570D01*
X670747Y717326D02*
X670776Y717246D01*
X670809Y717168D01*
X670846Y717092D01*
X670886Y717017D01*
X670929Y716944D01*
X670976Y716873D01*
X671026Y716804D01*
X671079Y716738D01*
X671135Y716674D01*
X671194Y716613D01*
X671255Y716555D01*
X671320Y716499D01*
X671386Y716447D01*
X671455Y716398D01*
X671527Y716352D01*
X671600Y716309D01*
X671675Y716270D01*
X671752Y716234D01*
X671830Y716201D01*
X671910Y716173D01*
X671991Y716148D01*
X672073Y716127D01*
X672156Y716109D01*
X672240Y716096D01*
X672325Y716086D01*
X672409Y716080D01*
X672494Y716078D01*
X674490Y718074D02*
X670497Y723066D01*
D114*
X170500Y2285000D03*
M02*
